<svg width="200" height="120" viewBox="0 0 200 120" fill="none" xmlns="http://www.w3.org/2000/svg">
<rect width="200" height="120" rx="16" fill="white" fill-opacity="0.4"/>
<g clip-path="url(#clip0_85_1112)">
<path d="M86.163 62.2928L83.7535 55.7676C83.6472 55.4854 83.2574 55.4854 83.1865 55.7676L80.7416 62.2928C80.6707 62.5044 80.8124 62.716 81.0251 62.716H85.915C86.0921 62.716 86.2693 62.5044 86.163 62.2928ZM87.2969 65.961H79.6077C79.466 65.961 79.3596 66.0315 79.3242 66.1726L77.8005 70.2288C77.7651 70.3346 77.6234 70.4404 77.5171 70.4404H74.1863C73.9737 70.4404 73.8319 70.2288 73.9028 70.0172L81.592 50.9354C81.6274 50.8296 81.7692 50.759 81.8755 50.759H85.0645C85.2063 50.759 85.3126 50.8296 85.348 50.9354L93.0372 70.0172C93.1081 70.2288 92.9663 70.4404 92.7537 70.4404H89.4229C89.2812 70.4404 89.1749 70.3699 89.1395 70.2288L87.6158 66.1726C87.5449 66.0668 87.4386 65.961 87.2969 65.961ZM94.5963 57.4606H97.4665C97.6436 57.4606 97.7854 57.6017 97.7854 57.778V70.1583C97.7854 70.3346 97.6436 70.4757 97.4665 70.4757H94.5963C94.4191 70.4757 94.2774 70.3346 94.2774 70.1583V57.7428C94.2774 57.6017 94.4191 57.4606 94.5963 57.4606ZM108.168 60.4586C108.168 60.635 108.026 60.7761 107.849 60.7761H107.778C106.36 60.7761 105.333 61.1288 104.66 61.799C103.986 62.4691 103.667 63.5978 103.667 65.1497V70.1583C103.667 70.3346 103.526 70.4757 103.349 70.4757H100.514C100.337 70.4757 100.195 70.3346 100.195 70.1583V57.7428C100.195 57.5664 100.337 57.4253 100.514 57.4253H103.313C103.49 57.4253 103.632 57.5664 103.632 57.7428V60.1765H103.703C104.057 59.1536 104.589 58.3776 105.297 57.8486C106.042 57.3195 106.927 57.0373 108.026 57.0373H108.168V60.4586ZM115.998 60.3528C115.821 60.3528 115.68 60.4939 115.68 60.6703V65.8199C115.68 66.349 115.786 66.7369 115.998 66.9486C116.211 67.1602 116.565 67.3013 117.061 67.3013H117.345C117.522 67.3013 117.664 67.4424 117.664 67.6187V70.1935C117.664 70.3699 117.522 70.511 117.345 70.511H116.14C114.865 70.511 113.908 70.1935 113.235 69.5586C112.561 68.9238 112.207 67.9362 112.207 66.6664V60.6703C112.207 60.4939 112.065 60.3528 111.888 60.3528H110.116C109.939 60.3528 109.798 60.2117 109.798 60.0354V57.7428C109.798 57.5664 109.939 57.4253 110.116 57.4253H111.888C112.065 57.4253 112.207 57.2842 112.207 57.1079V52.5226C112.207 52.3462 112.349 52.2052 112.526 52.2052H115.396C115.573 52.2052 115.715 52.3462 115.715 52.5226V57.1079C115.715 57.2842 115.857 57.4253 116.034 57.4253H118.089C118.266 57.4253 118.408 57.5664 118.408 57.7428V60.0354C118.408 60.2117 118.266 60.3528 118.089 60.3528H115.998ZM129.074 66.5959C129.711 65.9257 130.03 65.0439 130.03 63.9505C130.03 62.8571 129.711 61.9753 129.074 61.3052C128.436 60.635 127.585 60.2823 126.522 60.2823C125.459 60.2823 124.609 60.635 123.971 61.3052C123.333 61.9753 123.014 62.8571 123.014 63.9505C123.014 65.0439 123.333 65.9257 123.971 66.5959C124.609 67.266 125.459 67.6187 126.522 67.6187C127.55 67.6187 128.4 67.266 129.074 66.5959ZM122.483 70.0524C121.526 69.5234 120.782 68.7121 120.215 67.6893C119.648 66.6664 119.365 65.3966 119.365 63.9505C119.365 62.5044 119.648 61.2699 120.215 60.2117C120.782 59.1889 121.526 58.3776 122.483 57.8486C123.44 57.3195 124.503 57.0373 125.637 57.0373C126.664 57.0373 127.515 57.249 128.259 57.6369C128.967 58.0249 129.57 58.5893 129.995 59.2947H130.066V57.778C130.066 57.6017 130.208 57.4606 130.385 57.4606H133.219C133.397 57.4606 133.538 57.6017 133.538 57.778V70.1583C133.538 70.3346 133.397 70.4757 133.219 70.4757H130.385C130.208 70.4757 130.066 70.3346 130.066 70.1583V68.6416H129.995C129.57 69.347 128.967 69.9114 128.259 70.2993C127.55 70.6873 126.664 70.899 125.637 70.899C124.467 70.8637 123.44 70.5815 122.483 70.0524ZM145.232 66.5959C145.869 65.9257 146.188 65.0439 146.188 63.9505C146.188 62.8571 145.869 61.9753 145.232 61.3052C144.594 60.635 143.743 60.2823 142.68 60.2823C141.617 60.2823 140.767 60.635 140.129 61.3052C139.491 61.9753 139.137 62.8571 139.137 63.9505C139.137 65.0439 139.456 65.9257 140.129 66.5959C140.767 67.266 141.617 67.6187 142.68 67.6187C143.743 67.6187 144.594 67.266 145.232 66.5959ZM140.944 70.2641C140.235 69.8761 139.633 69.3117 139.208 68.6063H139.137V70.123C139.137 70.2993 138.995 70.4404 138.818 70.4404H135.948C135.771 70.4404 135.629 70.2993 135.629 70.123V51.0765C135.629 50.9001 135.771 50.759 135.948 50.759H138.818C138.995 50.759 139.137 50.9001 139.137 51.0765V59.2947H139.208C139.633 58.5893 140.235 58.0249 140.944 57.6369C141.653 57.249 142.539 57.0373 143.566 57.0373C144.7 57.0373 145.763 57.3195 146.72 57.8486C147.677 58.3776 148.421 59.1889 148.988 60.2117C149.555 61.2346 149.838 62.5044 149.838 63.9505C149.838 65.3966 149.555 66.6311 148.988 67.6893C148.421 68.7121 147.677 69.5234 146.72 70.0524C145.763 70.5815 144.7 70.8637 143.566 70.8637C142.539 70.8637 141.688 70.6521 140.944 70.2641ZM154.657 70.4404H151.787C151.61 70.4404 151.468 70.2993 151.468 70.123V51.0765C151.468 50.9001 151.61 50.759 151.787 50.759H154.657C154.834 50.759 154.976 50.9001 154.976 51.0765V70.1583C154.941 70.2993 154.834 70.4404 154.657 70.4404ZM161.39 60.4586C160.929 60.8114 160.61 61.3404 160.433 62.0459C160.397 62.2222 160.539 62.4338 160.752 62.4338H166.173C166.35 62.4338 166.527 62.2575 166.492 62.0811C166.386 61.411 166.102 60.9172 165.642 60.4939C165.11 60.0354 164.401 59.7885 163.551 59.7885C162.665 59.8238 161.956 60.0354 161.39 60.4586ZM168.335 58.8362C169.433 60.0354 170 61.7637 170 63.9505V64.3032C170 64.4796 169.858 64.6207 169.681 64.6207H160.61C160.433 64.6207 160.256 64.797 160.291 64.9734C160.433 65.7846 160.787 66.4548 161.39 66.9133C162.063 67.4776 162.913 67.7598 163.905 67.7598C165.216 67.7598 166.421 67.266 167.555 66.2431C167.697 66.1021 167.909 66.1373 168.016 66.3137L169.398 68.2889C169.504 68.43 169.468 68.6063 169.362 68.7121C168.689 69.3117 167.945 69.8055 167.094 70.1935C166.173 70.6168 165.11 70.8637 163.905 70.8637C162.488 70.8637 161.248 70.5815 160.22 70.0172C159.157 69.4528 158.342 68.6416 157.775 67.5835C157.208 66.5606 156.889 65.3261 156.889 63.9858C156.889 62.6102 157.173 61.411 157.74 60.3528C158.307 59.2947 159.086 58.4835 160.114 57.9191C161.141 57.3548 162.311 57.0373 163.657 57.0373C165.677 57.0373 167.236 57.6369 168.335 58.8362ZM98.1397 52.8753C98.1397 54.0393 97.183 54.9916 96.0137 54.9916C94.8443 54.9916 93.8876 54.0393 93.8876 52.8753C93.8876 51.7114 94.8443 50.759 96.0137 50.759C97.183 50.759 98.1397 51.7114 98.1397 52.8753Z" fill="#333333"/>
<path d="M46.2642 45.2214L32.693 50.7943C31.9489 51.1117 31.9489 52.1698 32.693 52.4873L46.3351 57.8838C47.5398 58.3423 48.8509 58.3423 50.0557 57.8838L63.6978 52.4873C64.4419 52.1698 64.4773 51.1117 63.6978 50.7943L50.1265 45.2214C48.8863 44.6923 47.5044 44.6923 46.2642 45.2214Z" fill="#FCB400"/>
<path d="M49.4179 60.8113V74.2496C49.4179 74.8845 50.0557 75.3431 50.6581 75.0962L65.8593 69.2411C66.2136 69.1 66.4262 68.7826 66.4262 68.3946V54.9562C66.4262 54.3213 65.7884 53.8628 65.186 54.1097L49.9848 59.9648C49.6305 60.1058 49.4179 60.4233 49.4179 60.8113Z" fill="#18BFFF"/>
<path d="M30 54.9916V67.6187C30 68.2889 30.7795 68.7121 31.3819 68.43L40.8783 63.88L41.3389 63.6683L30.2835 54.392C30.1417 54.5331 30 54.7447 30 54.9916Z" fill="#F82B60"/>
<path d="M45.8036 59.859L31.3465 54.145C31.063 54.0392 30.7441 54.0745 30.5315 54.2156C30.4606 54.2508 30.3543 54.3214 30.2835 54.3919L41.3389 63.6683L45.839 61.5167C46.5831 61.164 46.5123 60.1411 45.8036 59.859Z" fill="#BA1E45"/>
</g>
<rect x="0.5" y="0.5" width="199" height="119" rx="15.5" stroke="#B670FF" stroke-opacity="0.2"/>
<defs>
<clipPath id="clip0_85_1112">
<rect width="140" height="30.3333" fill="white" transform="translate(30 44.8334)"/>
</clipPath>
</defs>
</svg>
