<svg width="200" height="120" viewBox="0 0 200 120" fill="none" xmlns="http://www.w3.org/2000/svg">
<rect width="200" height="120" rx="16" fill="white" fill-opacity="0.4"/>
<g clip-path="url(#clip0_85_1088)">
<path d="M113.107 56.4579C115.278 56.4579 117.335 57.779 117.768 60.6333H108.098C108.503 58.1286 110.385 56.4579 113.107 56.4579ZM117.459 64.8562C116.721 66.0011 115.293 66.8817 113.339 66.8817C110.646 66.8817 108.59 65.4136 108.098 62.8218H120.23C120.289 62.4503 120.318 62.0749 120.319 61.6989C120.319 57.668 117.485 54.0968 113.109 54.0968C108.592 54.0968 105.523 57.4082 105.523 61.6707C105.523 65.9861 108.622 69.2446 113.282 69.2446C116.178 69.2446 118.379 67.9483 119.652 65.9861L117.459 64.8562Z" fill="#006BFF"/>
<path d="M104.331 47.8483H101.812V68.8694H104.331V47.8483Z" fill="#006BFF"/>
<path d="M134.333 60.0291V68.8685H131.814V60.1726C131.814 57.8115 130.453 56.4869 128.223 56.4869C125.907 56.4869 124.025 57.8406 124.025 61.2382V68.8685H121.506V54.4728H124.025V56.5459C125.096 54.8471 126.689 54.0985 128.718 54.0985C132.106 54.0985 134.336 56.3443 134.336 60.0308" fill="#006BFF"/>
<path d="M148.223 61.6698C148.223 58.7327 145.993 56.5151 143.069 56.5151C140.173 56.5151 137.944 58.7327 137.944 61.6698C137.944 64.6069 140.173 66.8244 143.069 66.8244C145.991 66.8244 148.223 64.6069 148.223 61.6698ZM150.742 47.8483V68.8694H148.223V66.392C147.065 68.1534 145.212 69.2437 142.75 69.2437C138.725 69.2437 135.425 65.9314 135.425 61.6698C135.425 57.4081 138.725 54.0959 142.75 54.0959C145.211 54.0959 147.065 55.1897 148.223 56.9467V47.8483H150.742Z" fill="#006BFF"/>
<path d="M155.292 47.8483H152.773V68.8694H155.292V47.8483Z" fill="#006BFF"/>
<path d="M97.3225 61.6697C97.3225 58.7326 95.0935 56.5151 92.1685 56.5151C89.2736 56.5151 87.0437 58.7326 87.0437 61.6697C87.0437 64.6068 89.2736 66.8244 92.1685 66.8244C95.0909 66.8244 97.3225 64.6068 97.3225 61.6697ZM99.8419 54.4728V68.8685H97.3225V66.392C96.1642 68.1534 94.3116 69.2437 91.8506 69.2437C87.8257 69.2437 84.5243 65.9314 84.5243 61.6697C84.5243 57.4081 87.8257 54.0958 91.8506 54.0958C94.3116 54.0958 96.1642 55.1896 97.3225 56.9466V54.4728H99.8419Z" fill="#006BFF"/>
<path d="M80.7881 66.0979C79.4986 66.5711 78.1067 66.6988 76.7519 66.4683C75.3972 66.2378 74.1271 65.6572 73.0692 64.7846C72.0112 63.912 71.2025 62.7782 70.7242 61.4967C70.2458 60.2153 70.1146 58.8313 70.3438 57.4835C70.5729 56.1358 71.1543 54.8716 72.0296 53.8178C72.905 52.7639 74.0435 51.9575 75.3311 51.4793C76.6187 51.001 78.0101 50.8679 79.3658 51.0931C80.7215 51.3183 81.9938 51.894 83.0551 52.7625C83.4977 53.1256 83.8981 53.5368 84.2489 53.9884L86.4283 52.4032C85.1586 50.7525 83.4247 49.5138 81.4464 48.8442C79.4681 48.1746 77.3344 48.1042 75.3158 48.6419C73.2972 49.1796 71.4845 50.3012 70.1076 51.8645C68.7307 53.4278 67.8514 55.3625 67.5814 57.4233C67.3113 59.4841 67.6625 61.5783 68.5905 63.4404C69.5185 65.3025 70.9816 66.8486 72.7942 67.8829C74.6068 68.9172 76.6873 69.393 78.7721 69.25C80.8569 69.107 82.8521 68.3517 84.5048 67.0798L83.0543 64.7988C82.3766 65.3539 81.6107 65.7929 80.7881 66.0979Z" fill="#006BFF"/>
<path d="M167.45 54.4728V62.6438C167.45 65.2859 165.905 66.9592 163.546 66.9592C161.187 66.9592 159.479 65.2859 159.479 62.6438V54.4728H156.93V62.399C156.93 66.5523 159.533 69.249 163.546 69.249C167.017 69.249 167.559 67.0649 167.559 67.0102V69.95C167.559 72.8624 166.285 74.5075 163.627 74.5075C162.678 74.5122 161.76 74.1735 161.043 73.5546C160.326 72.9357 159.86 72.0787 159.731 71.1433L157.452 71.9359C157.779 73.3217 158.567 74.5568 159.689 75.44C160.811 76.3232 162.201 76.8026 163.632 76.8C167.753 76.8 170.008 74.1024 170.008 69.95V54.4728H167.45Z" fill="#006BFF"/>
<path d="M50.5079 62.8595C49.54 63.7138 48.3312 64.7768 46.1394 64.7768H44.8288C43.2428 64.7768 41.8002 64.2034 40.7676 63.1642C39.7589 62.1488 39.2037 60.7591 39.2037 59.2505V57.4671C39.2037 55.9584 39.7589 54.5687 40.7676 53.5533C41.8002 52.5141 43.2428 51.9416 44.8288 51.9416H46.1394C48.3339 51.9416 49.54 53.0037 50.5079 53.858C51.5131 54.7387 52.38 55.5084 54.6922 55.5084C55.0449 55.5083 55.397 55.4804 55.7452 55.4247L55.7372 55.4045C55.5987 55.0625 55.4362 54.7305 55.251 54.4111L53.7057 51.7488C53.0089 50.5486 52.0066 49.552 50.7997 48.8591C49.5928 48.1662 48.2238 47.8015 46.8302 47.8015H43.7387C42.3451 47.8015 40.9761 48.1662 39.7692 48.8591C38.5623 49.552 37.56 50.5486 36.8631 51.7488L35.3178 54.4111C34.6212 55.6114 34.2545 56.9729 34.2545 58.3588C34.2545 59.7446 34.6212 61.1061 35.3178 62.3064L36.8631 64.9688C37.56 66.1689 38.5623 67.1656 39.7692 67.8584C40.9761 68.5513 42.3451 68.9161 43.7387 68.916H46.8302C48.2238 68.9161 49.5928 68.5513 50.7997 67.8584C52.0066 67.1656 53.0089 66.1689 53.7057 64.9688L55.251 62.3108C55.4362 61.9914 55.5987 61.6595 55.7372 61.3174L55.7452 61.2981C55.3972 61.2406 55.045 61.2111 54.6922 61.21C52.38 61.21 51.5131 61.9753 50.5079 62.8604" fill="#006BFF"/>
<path d="M46.1394 53.5577H44.8288C42.4148 53.5577 40.8287 55.2724 40.8287 57.4671V59.2505C40.8287 61.4452 42.4148 63.1599 44.8288 63.1599H46.1394C49.6569 63.1599 49.3806 59.5931 54.6922 59.5931C55.1955 59.5925 55.6977 59.6385 56.1924 59.7305C56.3536 58.8231 56.3536 57.8946 56.1924 56.9871C55.6976 57.0787 55.1955 57.1246 54.6922 57.1245C49.3788 57.1245 49.6569 53.5577 46.1394 53.5577Z" fill="#006BFF"/>
<path d="M59.244 61.0339C58.3395 60.375 57.2964 59.929 56.1933 59.7296C56.1933 59.7393 56.1933 59.7472 56.1933 59.756C56.0983 60.2818 55.95 60.7967 55.7505 61.2928C56.6617 61.4331 57.5263 61.7872 58.2726 62.3258C58.2726 62.3329 58.2682 62.3417 58.2655 62.3496C57.305 65.4428 55.2606 68.0907 52.5039 69.8123C49.7472 71.534 46.461 72.2151 43.2422 71.7321C40.0234 71.2491 37.0856 69.6339 34.9625 67.1799C32.8394 64.726 31.6718 61.5961 31.6718 58.3588C31.6718 55.1215 32.8394 51.9916 34.9625 49.5376C37.0856 47.0837 40.0234 45.4685 43.2422 44.9855C46.461 44.5024 49.7472 45.1836 52.5039 46.9052C55.2606 48.6269 57.305 51.2748 58.2655 54.3679C58.2655 54.3759 58.2699 54.3847 58.2726 54.3917C57.5264 54.9304 56.6618 55.2842 55.7505 55.4239C55.9497 55.9206 56.0981 56.4361 56.1933 56.9624C56.1928 56.9707 56.1928 56.9789 56.1933 56.9871C57.2963 56.788 58.3395 56.3423 59.244 55.6837C60.1137 55.0434 59.9454 54.3204 59.8135 53.8924C58.7383 50.4243 56.4477 47.4549 53.358 45.5238C50.2683 43.5927 46.5845 42.828 42.9759 43.3687C39.3674 43.9093 36.0737 45.7195 33.6932 48.4702C31.3128 51.2209 30.0036 54.7296 30.0036 58.3588C30.0036 61.9879 31.3128 65.4966 33.6932 68.2474C36.0737 70.9981 39.3674 72.8082 42.9759 73.3489C46.5845 73.8896 50.2683 73.1248 53.358 71.1937C56.4477 69.2626 58.7383 66.2932 59.8135 62.8252C59.9454 62.3972 60.1137 61.6741 59.244 61.0339Z" fill="#006BFF"/>
<path d="M55.7452 55.4239C55.3972 55.4814 55.045 55.5109 54.6922 55.512C52.38 55.512 51.5131 54.7467 50.5088 53.8616C49.54 53.0073 48.3339 51.9443 46.1394 51.9443H44.8288C43.2419 51.9443 41.8002 52.5177 40.7676 53.5569C39.7589 54.5723 39.2037 55.962 39.2037 57.4707V59.254C39.2037 60.7627 39.7589 62.1524 40.7676 63.1678C41.8002 64.207 43.2419 64.7795 44.8288 64.7795H46.1394C48.3339 64.7795 49.54 63.7174 50.5088 62.8631C51.5131 61.9824 52.38 61.2127 54.6922 61.2127C55.0449 61.2128 55.397 61.2408 55.7452 61.2964C55.9451 60.8004 56.0934 60.2855 56.188 59.7596C56.1885 59.7508 56.1885 59.7419 56.188 59.7331C55.6932 59.6419 55.191 59.5962 54.6878 59.5966C49.3744 59.5966 49.6525 63.1643 46.135 63.1643H44.8244C42.4103 63.1643 40.8243 61.4487 40.8243 59.254V57.4671C40.8243 55.2725 42.4103 53.5578 44.8244 53.5578H46.135C49.6525 53.5578 49.3762 57.1237 54.6878 57.1237C55.191 57.1245 55.6932 57.0788 56.188 56.9872C56.188 56.9792 56.188 56.9713 56.188 56.9625C56.0928 56.4361 55.9444 55.9207 55.7452 55.4239Z" fill="#0AE8F0"/>
<path d="M55.7452 55.4239C55.3972 55.4814 55.045 55.5109 54.6922 55.512C52.38 55.512 51.5131 54.7467 50.5088 53.8616C49.54 53.0073 48.3339 51.9443 46.1394 51.9443H44.8288C43.2419 51.9443 41.8002 52.5177 40.7676 53.5569C39.7589 54.5723 39.2037 55.962 39.2037 57.4707V59.254C39.2037 60.7627 39.7589 62.1524 40.7676 63.1678C41.8002 64.207 43.2419 64.7795 44.8288 64.7795H46.1394C48.3339 64.7795 49.54 63.7174 50.5088 62.8631C51.5131 61.9824 52.38 61.2127 54.6922 61.2127C55.0449 61.2128 55.397 61.2408 55.7452 61.2964C55.9451 60.8004 56.0934 60.2855 56.188 59.7596C56.1885 59.7508 56.1885 59.7419 56.188 59.7331C55.6932 59.6419 55.191 59.5962 54.6878 59.5966C49.3744 59.5966 49.6525 63.1643 46.135 63.1643H44.8244C42.4103 63.1643 40.8243 61.4487 40.8243 59.254V57.4671C40.8243 55.2725 42.4103 53.5578 44.8244 53.5578H46.135C49.6525 53.5578 49.3762 57.1237 54.6878 57.1237C55.191 57.1245 55.6932 57.0788 56.188 56.9872C56.188 56.9792 56.188 56.9713 56.188 56.9625C56.0928 56.4361 55.9444 55.9207 55.7452 55.4239Z" fill="#0AE8F0"/>
</g>
<rect x="0.5" y="0.5" width="199" height="119" rx="15.5" stroke="#B670FF" stroke-opacity="0.2"/>
<defs>
<clipPath id="clip0_85_1088">
<rect width="140" height="33.6" fill="white" transform="translate(30 43.2)"/>
</clipPath>
</defs>
</svg>
