<svg width="200" height="120" viewBox="0 0 200 120" fill="none" xmlns="http://www.w3.org/2000/svg">
<rect width="200" height="120" rx="16" fill="white" fill-opacity="0.4"/>
<g clip-path="url(#clip0_85_1061)">
<path d="M45.1623 46.0977V57.2911H34.8789V46.0977H30V72.8178H34.8802V61.9877H45.1609V72.8178H50.0425V46.0977H45.1623ZM65.663 64.1814C65.663 65.2524 65.2376 66.2796 64.4803 67.0369C63.7229 67.7942 62.6958 68.2196 61.6248 68.2196C60.5538 68.2196 59.5267 67.7942 58.7694 67.0369C58.0121 66.2796 57.5866 65.2524 57.5866 64.1814V52.7358H52.9574V64.1814C52.9574 66.4779 53.8696 68.6803 55.4935 70.3042C57.1173 71.928 59.3198 72.8403 61.6162 72.8403C63.9127 72.8403 66.1151 71.928 67.739 70.3042C69.3628 68.6803 70.2751 66.4779 70.2751 64.1814V52.7358H65.663V64.1814ZM99.9643 53.9152C99.9643 51.5682 101.516 50.8246 103.216 50.8246C104.587 50.8246 106.396 51.868 107.581 53.1333L110.612 49.5594C109.099 47.5122 106.029 46.0977 103.516 46.0977C98.493 46.0977 94.8609 49.039 94.8609 53.9152C94.8609 62.9624 105.918 60.0911 105.918 65.1548C105.918 66.716 104.402 68.0948 102.667 68.0948C99.9287 68.0948 99.0411 66.7569 97.7838 65.3411L94.4185 68.8397C96.5713 71.4812 99.226 72.8231 102.405 72.8231C107.177 72.8231 111.015 69.8461 111.015 65.1918C111.015 55.1488 99.9564 58.2697 99.9564 53.9152M168.372 68.5492C165.636 68.5492 164.858 67.3658 164.858 65.5537V57.5301H169.111V53.4648H164.858V48.1012L160.164 50.2078V66.5509C160.164 70.7311 163.049 72.8377 167.003 72.8377C167.624 72.8482 168.245 72.798 168.855 72.6897L170 68.4739C169.484 68.5095 168.891 68.5452 168.372 68.5452M83.2845 52.8692C80.9917 52.8692 79.3909 53.5348 77.843 55.0524V46.2575H73.2072V62.5595C73.2072 68.6614 77.6185 72.8429 82.5766 72.8429C88.0762 72.8429 92.9142 68.5875 92.9142 62.858C92.9142 57.1999 88.4619 52.8731 83.2845 52.8731M83.2555 68.1767C82.5646 68.1767 81.8804 68.0406 81.2421 67.7762C80.6038 67.5118 80.0238 67.1243 79.5352 66.6357C79.0467 66.1472 78.6591 65.5672 78.3947 64.9289C78.1303 64.2906 77.9942 63.6064 77.9942 62.9155C77.9942 62.2246 78.1303 61.5404 78.3947 60.9021C78.6591 60.2638 79.0467 59.6838 79.5352 59.1952C80.0238 58.7067 80.6038 58.3191 81.2421 58.0547C81.8804 57.7903 82.5646 57.6543 83.2555 57.6543C84.6508 57.6543 85.9891 58.2086 86.9757 59.1952C87.9624 60.1819 88.5167 61.5201 88.5167 62.9155C88.5167 64.3109 87.9624 65.6491 86.9757 66.6357C85.9891 67.6224 84.6508 68.1767 83.2555 68.1767ZM133.632 62.615C133.632 56.875 128.804 52.6301 123.294 52.6301C118.337 52.6301 113.925 56.8103 113.925 62.9135V79.2248H118.561V70.418C120.106 71.9329 121.709 72.6012 123.999 72.6012C129.177 72.6012 133.632 68.2744 133.632 62.615ZM129.242 62.5569C129.242 63.9523 128.687 65.2905 127.701 66.2772C126.714 67.2638 125.376 67.8181 123.98 67.8181C122.585 67.8181 121.247 67.2638 120.26 66.2772C119.273 65.2905 118.719 63.9523 118.719 62.5569C118.719 61.1615 119.273 59.8233 120.26 58.8367C121.247 57.85 122.585 57.2957 123.98 57.2957C125.376 57.2957 126.714 57.85 127.701 58.8367C128.687 59.8233 129.242 61.1615 129.242 62.5569Z" fill="#33475B"/>
<path d="M148.612 52.4056V47.7473C149.227 47.4596 149.748 47.003 150.115 46.4306C150.481 45.8582 150.677 45.1936 150.68 44.5141V44.4071C150.68 42.426 149.074 40.82 147.093 40.82H146.986C146.034 40.82 145.122 41.1979 144.449 41.8706C143.777 42.5434 143.399 43.4558 143.399 44.4071V44.5141C143.402 45.1936 143.598 45.8582 143.964 46.4306C144.33 47.003 144.851 47.4596 145.467 47.7473V52.4056C143.698 52.6765 142.032 53.4101 140.637 54.532L127.861 44.5815C127.952 44.2526 128 43.9145 128.005 43.5751C128.007 42.7756 127.771 41.9937 127.328 41.3281C126.885 40.6626 126.255 40.1433 125.517 39.8361C124.779 39.5288 123.966 39.4473 123.182 39.6019C122.398 39.7566 121.677 40.1403 121.111 40.7047C120.544 41.2691 120.158 41.9887 120.001 42.7725C119.844 43.5564 119.923 44.3692 120.228 45.1083C120.532 45.8473 121.05 46.4793 121.714 46.9244C122.378 47.3695 123.159 47.6076 123.958 47.6087C124.658 47.6054 125.344 47.4186 125.949 47.0671L138.529 56.8566C137.399 58.5639 136.809 60.572 136.837 62.6193C136.865 64.6665 137.509 66.658 138.685 68.3339L134.859 72.1615C134.549 72.0626 134.227 72.01 133.902 72.0056C133.246 72.0062 132.605 72.2012 132.059 72.5661C131.514 72.931 131.089 73.4494 130.838 74.0558C130.587 74.6621 130.522 75.3293 130.65 75.9729C130.778 76.6164 131.094 77.2076 131.558 77.6716C132.022 78.1356 132.613 78.4517 133.257 78.5798C133.901 78.708 134.568 78.6425 135.174 78.3916C135.78 78.1407 136.299 77.7157 136.664 77.1703C137.029 76.6249 137.224 75.9836 137.224 75.3273C137.22 75.0026 137.167 74.6804 137.068 74.3711L140.854 70.5845C142.088 71.5348 143.523 72.1899 145.05 72.4997C146.577 72.8096 148.154 72.7658 149.661 72.3719C151.168 71.9779 152.565 71.2442 153.745 70.227C154.925 69.2097 155.856 67.9359 156.468 66.5032C157.079 65.0704 157.355 63.5167 157.273 61.9611C157.191 60.4054 156.754 58.8892 155.996 57.5284C155.238 56.1676 154.178 54.9985 152.898 54.1105C151.618 53.2226 150.152 52.6394 148.612 52.4056ZM147.043 67.7264C146.343 67.7456 145.647 67.6245 144.995 67.3701C144.343 67.1156 143.749 66.7331 143.247 66.2451C142.745 65.7571 142.347 65.1735 142.074 64.5288C141.802 63.8841 141.662 63.1914 141.662 62.4916C141.662 61.7917 141.802 61.099 142.074 60.4543C142.347 59.8096 142.745 59.226 143.247 58.738C143.749 58.25 144.343 57.8675 144.995 57.6131C145.647 57.3587 146.343 57.2375 147.043 57.2568C148.399 57.3042 149.683 57.8761 150.626 58.8518C151.568 59.8275 152.095 61.131 152.096 62.4877C152.097 63.8444 151.571 65.1484 150.629 66.1251C149.688 67.1018 148.404 67.6749 147.048 67.7237" fill="#FF7A59"/>
</g>
<rect x="0.5" y="0.5" width="199" height="119" rx="15.5" stroke="#B670FF" stroke-opacity="0.2"/>
<defs>
<clipPath id="clip0_85_1061">
<rect width="140" height="40.9434" fill="white" transform="translate(30 39.5283)"/>
</clipPath>
</defs>
</svg>
