<svg width="200" height="120" viewBox="0 0 200 120" fill="none" xmlns="http://www.w3.org/2000/svg">
<rect width="200" height="120" rx="16" fill="white" fill-opacity="0.4"/>
<path d="M79.8313 67.7392L81.2261 64.4901C82.7334 65.6183 84.7357 66.2049 86.7154 66.2049C88.1777 66.2049 89.1001 65.6408 89.1001 64.7834C89.0776 62.3918 80.3487 64.2645 80.2812 58.2628C80.2587 55.2168 82.9584 52.8702 86.7829 52.8702C89.0551 52.8702 91.3273 53.4343 92.9471 54.7204L91.6423 58.0371C90.1575 57.0895 88.3127 56.4126 86.5579 56.4126C85.3656 56.4126 84.5782 56.9767 84.5782 57.6987C84.6007 60.0452 93.3971 58.7592 93.4871 64.4901C93.4871 67.6038 90.8549 69.7924 87.0754 69.7924C84.3082 69.7924 81.766 69.1381 79.8313 67.7392Z" fill="black"/>
<path d="M133.352 63.3169C132.655 64.5353 131.35 65.3701 129.843 65.3701C127.615 65.3701 125.816 63.5651 125.816 61.3313C125.816 59.0976 127.615 57.2926 129.843 57.2926C131.35 57.2926 132.655 58.1274 133.352 59.3458L137.199 57.2023C135.759 54.6301 132.992 52.8702 129.843 52.8702C125.186 52.8702 121.406 56.6608 121.406 61.3313C121.406 66.0018 125.186 69.7924 129.843 69.7924C133.015 69.7924 135.759 68.0551 137.199 65.4603L133.352 63.3169Z" fill="black"/>
<path d="M100.236 45.8531H95.4218V69.4765H100.236V45.8531Z" fill="black"/>
<path d="M139.089 45.8531V69.4765H143.903V62.3918L149.618 69.4765H155.782L148.515 61.0605L155.242 53.2087H149.348L143.903 59.7293V45.8531H139.089Z" fill="black"/>
<path d="M114.544 63.362C113.847 64.5127 112.407 65.3701 110.787 65.3701C108.56 65.3701 106.76 63.5651 106.76 61.3313C106.76 59.0976 108.56 57.2926 110.787 57.2926C112.407 57.2926 113.847 58.1951 114.544 59.3684V63.362ZM114.544 53.2087V55.1265C113.757 53.7953 111.8 52.8702 109.753 52.8702C105.523 52.8702 102.193 56.6157 102.193 61.3088C102.193 66.0018 105.523 69.7924 109.753 69.7924C111.8 69.7924 113.757 68.8673 114.544 67.5361V69.454H119.359V53.2087H114.544Z" fill="black"/>
<path d="M50.0675 63.3394C50.0675 64.9865 48.7402 66.3177 47.0979 66.3177C45.4556 66.3177 44.1282 64.9865 44.1282 63.3394C44.1282 61.6923 45.4556 60.3611 47.0979 60.3611H50.0675V63.3394Z" fill="#E01E5A"/>
<path d="M51.5523 63.3394C51.5523 61.6923 52.8796 60.3611 54.5219 60.3611C56.1642 60.3611 57.4916 61.6923 57.4916 63.3394V70.7851C57.4916 72.4322 56.1642 73.7634 54.5219 73.7634C52.8796 73.7634 51.5523 72.4322 51.5523 70.7851V63.3394Z" fill="#E01E5A"/>
<path d="M54.5219 51.381C52.8796 51.381 51.5523 50.0498 51.5523 48.4027C51.5523 46.7557 52.8796 45.4244 54.5219 45.4244C56.1642 45.4244 57.4916 46.7557 57.4916 48.4027V51.381H54.5219Z" fill="#36C5F0"/>
<path d="M54.5219 52.8927C56.1642 52.8927 57.4916 54.2239 57.4916 55.871C57.4916 57.5181 56.1642 58.8493 54.5219 58.8493H47.0754C45.4331 58.8493 44.1057 57.5181 44.1057 55.871C44.1057 54.2239 45.4331 52.8927 47.0754 52.8927H54.5219Z" fill="#36C5F0"/>
<path d="M66.4229 55.871C66.4229 54.2239 67.7503 52.8927 69.3926 52.8927C71.0349 52.8927 72.3622 54.2239 72.3622 55.871C72.3622 57.5181 71.0349 58.8493 69.3926 58.8493H66.4229V55.871Z" fill="#2EB67D"/>
<path d="M64.9381 55.8711C64.9381 57.5181 63.6108 58.8494 61.9685 58.8494C60.3262 58.8494 58.9989 57.5181 58.9989 55.8711V48.4027C58.9989 46.7557 60.3262 45.4244 61.9685 45.4244C63.6108 45.4244 64.9381 46.7557 64.9381 48.4027V55.8711Z" fill="#2EB67D"/>
<path d="M61.9685 67.8069C63.6108 67.8069 64.9381 69.1381 64.9381 70.7852C64.9381 72.4323 63.6108 73.7635 61.9685 73.7635C60.3262 73.7635 58.9989 72.4323 58.9989 70.7852V67.8069H61.9685Z" fill="#ECB22E"/>
<path d="M61.9685 66.3177C60.3262 66.3177 58.9989 64.9865 58.9989 63.3394C58.9989 61.6923 60.3262 60.3611 61.9685 60.3611H69.4151C71.0574 60.3611 72.3847 61.6923 72.3847 63.3394C72.3847 64.9865 71.0574 66.3177 69.4151 66.3177H61.9685Z" fill="#ECB22E"/>
<rect x="0.5" y="0.5" width="199" height="119" rx="15.5" stroke="#B670FF" stroke-opacity="0.2"/>
</svg>
