<svg width="200" height="120" viewBox="0 0 200 120" fill="none" xmlns="http://www.w3.org/2000/svg">
<rect width="200" height="120" rx="16" fill="white" fill-opacity="0.4"/>
<g clip-path="url(#clip0_85_1107)">
<path fill-rule="evenodd" clip-rule="evenodd" d="M91.3587 32.8044C94.5631 29.4663 99.0272 27.3935 103.962 27.3935C110.522 27.3935 116.247 31.0522 119.295 36.4837C122.022 35.2656 124.975 34.6377 127.962 34.6413C139.795 34.6413 149.386 44.3174 149.386 56.2555C149.386 68.1935 139.795 77.8696 127.962 77.8696C126.515 77.8696 125.104 77.725 123.74 77.45C121.057 82.2359 115.939 85.4707 110.069 85.4707C107.611 85.4707 105.286 84.9055 103.217 83.8935C100.496 90.2957 94.1555 94.7826 86.7674 94.7826C79.074 94.7826 72.5153 89.9131 69.999 83.0859C68.8778 83.3225 67.735 83.4416 66.5892 83.4413C57.4272 83.4424 50 75.9381 50 66.6805C49.9932 63.7466 50.7554 60.8623 52.2108 58.3148C53.6661 55.7674 55.7638 53.646 58.2946 52.162C57.2447 49.7427 56.7044 47.133 56.7077 44.4957C56.7077 33.8479 65.35 25.2174 76.0109 25.2174C78.9808 25.214 81.9113 25.8969 84.5736 27.213C87.2359 28.5291 89.5581 30.4427 91.3587 32.8044Z" fill="#00A1E0"/>
<path fill-rule="evenodd" clip-rule="evenodd" d="M64.3957 61.2935L64.7978 60.1772C64.862 59.9859 65.0065 60.049 65.0652 60.0848C65.1772 60.1512 65.2576 60.2109 65.4022 60.2957C66.587 61.0446 67.6848 61.0522 68.0272 61.0522C68.9141 61.0522 69.4641 60.5827 69.4641 59.949V59.9164C69.4641 59.2272 68.6163 58.9664 67.637 58.6664L67.4196 58.5968C66.075 58.2142 64.637 57.6609 64.637 55.9588V55.924C64.637 54.3088 65.9402 53.1816 67.8054 53.1816L68.0098 53.1794C69.1054 53.1794 70.1641 53.4979 70.9315 53.9631C71.0011 54.0066 71.0685 54.087 71.0293 54.1935L70.6163 55.3099C70.5435 55.5001 70.3446 55.374 70.3446 55.374C69.5439 54.9568 68.658 54.7295 67.7554 54.7099C66.9641 54.7099 66.4554 55.1294 66.4554 55.699V55.7349C66.4554 56.399 67.3272 56.6827 68.338 57.012L68.512 57.0664C69.8522 57.4903 71.2826 58.0772 71.2826 59.6914V59.7251C71.2826 61.4696 70.0152 62.5533 67.9772 62.5533C66.9761 62.5533 66.0185 62.399 65.0054 61.8609C64.8141 61.7501 64.625 61.6544 64.438 61.5185C64.4185 61.4903 64.3326 61.4566 64.3946 61.2935H64.3957ZM94.2402 61.2935L94.6435 60.1772C94.7022 59.9946 94.8728 60.062 94.9098 60.0848C95.0207 60.1533 95.1033 60.2109 95.2467 60.2957C96.4337 61.0446 97.5293 61.0522 97.875 61.0522C98.7587 61.0522 99.3098 60.5827 99.3098 59.949V59.9164C99.3098 59.2272 98.463 58.9664 97.4837 58.6664L97.2663 58.5968C95.9196 58.2142 94.4815 57.6609 94.4815 55.9588V55.924C94.4815 54.3088 95.7859 53.1816 97.6511 53.1816L97.8543 53.1794C98.95 53.1794 100.01 53.4979 100.778 53.9631C100.846 54.0066 100.914 54.087 100.876 54.1935C100.838 54.2925 100.499 55.2055 100.463 55.3099C100.388 55.5001 100.191 55.374 100.191 55.374C99.3904 54.9566 98.504 54.7294 97.6011 54.7099C96.8098 54.7099 96.3011 55.1294 96.3011 55.699V55.7349C96.3011 56.399 97.1717 56.6827 98.1837 57.012L98.3576 57.0664C99.6978 57.4903 101.127 58.0772 101.127 59.6914V59.7251C101.127 61.4696 99.8609 62.5533 97.8228 62.5533C96.8207 62.5533 95.863 62.399 94.8511 61.8609C94.6598 61.7501 94.4707 61.6544 94.2826 61.5185C94.263 61.4903 94.1772 61.4566 94.2402 61.2935ZM116.316 56.0446C116.484 56.6055 116.566 57.2218 116.566 57.8729C116.566 58.5251 116.484 59.1392 116.316 59.7001C116.163 60.2409 115.901 60.7444 115.545 61.1794C115.188 61.6019 114.741 61.9385 114.236 62.1642C113.714 62.4033 113.101 62.5229 112.412 62.5229C111.723 62.5229 111.108 62.4033 110.588 62.1642C110.083 61.9385 109.636 61.6019 109.279 61.1794C108.924 60.7445 108.661 60.2414 108.507 59.7012C108.336 59.1069 108.251 58.4912 108.257 57.8729C108.257 57.2207 108.34 56.6055 108.507 56.0446C108.674 55.4794 108.934 54.9816 109.278 54.5664C109.636 54.1422 110.083 53.8029 110.588 53.5729C111.109 53.3294 111.721 53.2066 112.412 53.2066C113.103 53.2066 113.715 53.3294 114.236 53.5729C114.755 53.8153 115.197 54.149 115.545 54.5664C115.89 54.9816 116.151 55.4794 116.316 56.0446ZM114.616 57.8729C114.616 56.887 114.434 56.112 114.071 55.5685C113.712 55.0294 113.168 54.7685 112.412 54.7685C111.655 54.7685 111.116 55.0294 110.762 55.5685C110.407 56.112 110.225 56.887 110.225 57.8729C110.225 58.8577 110.407 59.6381 110.764 60.1859C111.116 60.7316 111.655 60.9957 112.412 60.9957C113.168 60.9957 113.712 60.7305 114.071 60.1859C114.432 59.6381 114.616 58.8577 114.616 57.8729ZM130.292 60.7316L130.71 61.8859C130.764 62.0272 130.641 62.0892 130.641 62.0892C129.997 62.3392 129.102 62.5175 128.232 62.5175C126.755 62.5175 125.625 62.0925 124.871 61.2533C124.121 60.4164 123.738 59.2783 123.738 57.8664C123.738 57.2131 123.833 56.5946 124.017 56.0349C124.202 55.4696 124.479 54.9718 124.845 54.5566C125.224 54.1297 125.692 53.7907 126.215 53.5631C126.759 53.3207 127.398 53.199 128.111 53.199C128.592 53.199 129.021 53.2283 129.388 53.2827C129.78 53.3435 130.303 53.4849 130.524 53.5707C130.564 53.5859 130.676 53.6403 130.63 53.7718C130.47 54.2251 130.36 54.5207 130.211 54.9338C130.146 55.1099 130.013 55.0512 130.013 55.0512C129.453 54.8751 128.916 54.7946 128.215 54.7946C127.373 54.7946 126.74 55.0751 126.327 55.624C125.91 56.1772 125.676 56.9022 125.673 57.8664C125.67 58.924 125.935 59.7077 126.404 60.1925C126.873 60.6762 127.527 60.9207 128.351 60.9207C128.685 60.9207 129 60.899 129.284 60.8544C129.564 60.8098 129.827 60.7229 130.075 60.6262C130.075 60.6262 130.235 60.5664 130.292 60.7316ZM138.999 55.724C139.37 57.0218 139.176 58.1425 139.17 58.2044C139.155 58.3522 139.003 58.3544 139.003 58.3544L133.243 58.3501C133.279 59.2251 133.489 59.8446 133.913 60.2653C134.329 60.6772 134.99 60.9414 135.885 60.9425C137.252 60.9457 137.836 60.6707 138.25 60.5175C138.25 60.5175 138.408 60.4609 138.467 60.6175L138.842 61.6729C138.918 61.8501 138.858 61.912 138.793 61.9479C138.433 62.1468 137.558 62.5185 135.892 62.5229C135.085 62.5262 134.382 62.4109 133.802 62.1859C133.252 61.982 132.756 61.6535 132.353 61.2262C131.969 60.8068 131.683 60.3065 131.517 59.762C131.339 59.1655 131.252 58.5455 131.258 57.9229C131.258 57.2707 131.341 56.6512 131.51 56.0849C131.678 55.5142 131.94 55.0109 132.289 54.5881C132.651 54.1566 133.104 53.8112 133.616 53.5772C134.145 53.3283 134.799 53.2066 135.518 53.2066C136.135 53.2066 136.698 53.3392 137.166 53.5414C137.527 53.6957 137.89 53.9751 138.262 54.3751C138.497 54.6272 138.854 55.1794 138.999 55.724ZM133.271 56.9272H137.379C137.337 56.399 137.234 55.9251 136.997 55.5685C136.636 55.0294 136.138 54.7327 135.383 54.7327C134.626 54.7327 134.089 55.0294 133.734 55.5685C133.501 55.9251 133.352 56.3794 133.271 56.9272ZM92.863 55.724C93.2326 57.0218 93.0424 58.1425 93.0359 58.2044C93.0206 58.3522 92.8685 58.3544 92.8685 58.3544L87.1076 58.3501C87.1446 59.2251 87.3533 59.8446 87.7783 60.2653C88.1946 60.6772 88.8543 60.9414 89.7489 60.9425C91.1163 60.9457 91.7022 60.6707 92.1152 60.5175C92.1152 60.5175 92.2728 60.4609 92.3315 60.6175L92.7076 61.6729C92.7837 61.8501 92.7228 61.912 92.6598 61.9479C92.2967 62.1468 91.4207 62.5185 89.7576 62.5229C88.9489 62.5262 88.2457 62.4109 87.6674 62.1859C87.1167 61.9817 86.6205 61.6533 86.2174 61.2262C85.8337 60.8064 85.5489 60.3062 85.3837 59.762C85.2041 59.1657 85.1158 58.5456 85.1217 57.9229C85.1217 57.2707 85.2065 56.6512 85.3739 56.0849C85.5305 55.5384 85.796 55.0293 86.1543 54.5881C86.5159 54.1569 86.9689 53.8116 87.4804 53.5772C88.0109 53.3283 88.6652 53.2066 89.3826 53.2066C89.9496 53.2053 90.511 53.3192 91.0326 53.5414C91.3935 53.6957 91.7565 53.9751 92.1272 54.3751C92.362 54.6272 92.7196 55.1794 92.863 55.724ZM87.1337 56.9272H91.2446C91.2011 56.399 91.0978 55.9251 90.862 55.5685C90.5033 55.0294 90.0033 54.7327 89.2478 54.7327C88.4913 54.7327 87.9533 55.0294 87.6 55.5685C87.3652 55.9251 87.2174 56.3794 87.1337 56.9272ZM76.975 56.6522C76.975 56.6522 77.4293 56.6925 77.925 56.7642V56.5207C77.925 55.7522 77.7652 55.3903 77.4511 55.1479C77.1293 54.9022 76.6489 54.7751 76.0272 54.7751C76.0272 54.7751 74.625 54.7577 73.5163 55.3599C73.4652 55.3903 73.4228 55.4077 73.4228 55.4077C73.4228 55.4077 73.2837 55.4566 73.2337 55.3142L72.8261 54.2185C72.763 54.0609 72.8772 53.9892 72.8772 53.9892C73.3957 53.5849 74.6522 53.3403 74.6522 53.3403C75.1623 53.2507 75.6789 53.203 76.1967 53.1979C77.3467 53.1979 78.237 53.4653 78.8424 53.9946C79.4489 54.5262 79.7576 55.3827 79.7576 56.537L79.7609 61.8066C79.7609 61.8066 79.7728 61.9588 79.6283 61.9935C79.6283 61.9935 79.4163 62.0522 79.2261 62.0968C79.0337 62.1414 78.3402 62.2827 77.7739 62.3783C77.1956 62.4752 76.6103 62.524 76.0239 62.524C75.4641 62.524 74.9511 62.4718 74.4989 62.3685C74.0775 62.2803 73.6785 62.1072 73.3261 61.8598C73.0049 61.6266 72.7471 61.3169 72.5761 60.9588C72.3989 60.5968 72.3098 60.1544 72.3098 59.6435C72.3098 59.1425 72.4152 58.6957 72.6185 58.3153C72.8228 57.937 73.1033 57.6164 73.4554 57.3653C73.8193 57.1091 74.2261 56.9203 74.6565 56.8077C75.1054 56.6881 75.5826 56.6262 76.0761 56.6262C76.438 56.6262 76.7402 56.6338 76.975 56.6522ZM74.6826 60.7001C74.6793 60.699 75.1989 61.1077 76.3717 61.0359C77.1956 60.9859 77.9261 60.8294 77.9261 60.8294V58.2099C77.9261 58.2099 77.1891 58.0892 76.362 58.0772C75.1891 58.0631 74.6891 58.4946 74.6924 58.4935C74.3467 58.7392 74.1783 59.1033 74.1783 59.6077C74.1783 59.9305 74.2359 60.1827 74.3522 60.3588C74.425 60.4751 74.4565 60.5185 74.6826 60.7001ZM123.438 53.6838C123.384 53.8414 123.104 54.6305 123.003 54.8925C122.966 54.9925 122.905 55.0609 122.793 55.049C122.793 55.049 122.463 54.9729 122.161 54.9729C121.953 54.9729 121.657 54.999 121.389 55.0816C121.121 55.164 120.877 55.3106 120.678 55.5088C120.467 55.712 120.297 55.9979 120.173 56.3566C120.047 56.7175 119.982 57.2914 119.982 57.8675V62.1588C119.982 62.1817 119.977 62.2044 119.969 62.2256C119.96 62.2469 119.947 62.2662 119.931 62.2824C119.915 62.2987 119.896 62.3116 119.874 62.3204C119.853 62.3292 119.831 62.3338 119.808 62.3338H118.296C118.273 62.3341 118.25 62.3298 118.228 62.3212C118.207 62.3126 118.187 62.2999 118.17 62.2837C118.154 62.2676 118.141 62.2483 118.132 62.2271C118.123 62.2058 118.118 62.183 118.117 62.1599V53.5675C118.117 53.4707 118.188 53.3935 118.285 53.3935H119.76C119.858 53.3935 119.927 53.4707 119.927 53.5675V54.2696C120.148 53.974 120.543 53.7131 120.901 53.5522C121.26 53.3892 121.661 53.2696 122.386 53.3131C122.763 53.3359 123.253 53.4392 123.352 53.4772C123.372 53.485 123.389 53.4965 123.404 53.5111C123.419 53.5258 123.431 53.5432 123.439 53.5625C123.447 53.5817 123.451 53.6023 123.451 53.6232C123.45 53.644 123.446 53.6646 123.438 53.6838ZM109.232 49.7022C109.272 49.7185 109.382 49.7718 109.338 49.9022L108.896 51.112C108.859 51.2033 108.835 51.2577 108.647 51.2012C108.398 51.1229 108.139 51.0826 107.878 51.0816C107.65 51.0816 107.443 51.1109 107.261 51.1718C107.078 51.2303 106.912 51.3325 106.778 51.4696C106.6 51.6423 106.462 51.8524 106.374 52.0849C106.162 52.6935 106.08 53.3425 106.07 53.3838H107.911C108.066 53.3838 108.115 53.4555 108.1 53.5696L107.885 54.7675C107.85 54.9414 107.692 54.9349 107.692 54.9349H105.795L104.498 62.2783C104.386 62.9369 104.217 63.5844 103.991 64.2131C103.788 64.7446 103.578 65.1327 103.241 65.5033C102.954 65.835 102.588 66.0898 102.177 66.2446C101.778 66.3914 101.293 66.4664 100.764 66.4664C100.512 66.4664 100.24 66.4609 99.9196 66.3848C99.7409 66.344 99.5649 66.2925 99.3924 66.2305C99.3217 66.2055 99.2641 66.1153 99.3054 66.0001C99.3446 65.8859 99.6859 64.9522 99.7315 64.8294C99.7902 64.6816 99.9402 64.7381 99.9402 64.7381C100.042 64.7816 100.114 64.8099 100.25 64.837C100.388 64.8642 100.573 64.8881 100.713 64.8881C100.964 64.8881 101.192 64.8577 101.391 64.7903C101.63 64.7131 101.772 64.5729 101.917 64.3859C102.07 64.1892 102.193 63.9229 102.321 63.5653C102.448 63.2033 102.564 62.7251 102.664 62.1457L103.955 54.9359H102.684C102.532 54.9359 102.479 54.8642 102.497 54.749L102.71 53.5512C102.743 53.3772 102.905 53.3838 102.905 53.3838H104.211L104.282 52.9946C104.477 51.8381 104.865 50.9588 105.439 50.3816C106.016 49.8001 106.837 49.5066 107.878 49.5066C108.176 49.5066 108.439 49.5262 108.662 49.5664C108.88 49.6077 109.047 49.6457 109.232 49.7022ZM83.4967 62.1588C83.4967 62.2566 83.4293 62.3338 83.3315 62.3338H81.8043C81.7065 62.3338 81.6402 62.2555 81.6402 62.1599V49.8631C81.6402 49.7685 81.7076 49.6903 81.8033 49.6903H83.3315C83.4293 49.6903 83.4967 49.7685 83.4967 49.8642V62.1588Z" fill="white"/>
</g>
<rect x="0.5" y="0.5" width="199" height="119" rx="15.5" stroke="#B670FF" stroke-opacity="0.2"/>
<defs>
<clipPath id="clip0_85_1107">
<rect width="100" height="69.5652" fill="white" transform="translate(50 25.2174)"/>
</clipPath>
</defs>
</svg>
