<svg id="Layer_1" data-name="Layer 1" xmlns="http://www.w3.org/2000/svg" viewBox="0 0 111.58 122.88"><defs><style>.cls-1{fill:#25d366;fill-rule:evenodd;}.cls-2{fill:#fff;}.cls-3{fill:#21be5c;}</style></defs><title>share-on-whatsapp-button</title><path class="cls-1" d="M105.55,0H6A6,6,0,0,0,0,6V116.85a6,6,0,0,0,6,6h99.52a6,6,0,0,0,6-6V6a6,6,0,0,0-6-6Z"/><path class="cls-2" d="M23,101l3.68-.26a3.5,3.5,0,0,0,.48,1.54,2,2,0,0,0,1.72.85,1.73,1.73,0,0,0,1.27-.43,1.37,1.37,0,0,0,.45-1,1.39,1.39,0,0,0-.42-1,4.59,4.59,0,0,0-2-.82,8.06,8.06,0,0,1-3.64-1.71,3.67,3.67,0,0,1-1.09-2.73,4.09,4.09,0,0,1,.56-2.06,3.78,3.78,0,0,1,1.69-1.53,7.23,7.23,0,0,1,3.08-.55,5.77,5.77,0,0,1,3.67,1A4.55,4.55,0,0,1,34,95.54l-3.65.24a2.31,2.31,0,0,0-.61-1.4,1.82,1.82,0,0,0-1.29-.44,1.47,1.47,0,0,0-1,.32,1.08,1.08,0,0,0-.34.79.87.87,0,0,0,.28.61,2.87,2.87,0,0,0,1.3.52,14.85,14.85,0,0,1,3.63,1.25A3.91,3.91,0,0,1,33.89,99a4.28,4.28,0,0,1,.5,2.09,5,5,0,0,1-.66,2.52,4.43,4.43,0,0,1-1.87,1.74,6.85,6.85,0,0,1-3,.59c-2.13,0-3.61-.46-4.43-1.39A5.75,5.75,0,0,1,23,101ZM63.87,39c-.43-.22-2.59-1.28-3-1.42s-.69-.23-1,.22-1.13,1.43-1.39,1.72-.51.34-1,.11A11.81,11.81,0,0,1,54,37.44a13.21,13.21,0,0,1-2.45-3,.63.63,0,0,1,.2-.89c.2-.2.43-.52.66-.77a2.75,2.75,0,0,0,.43-.74.8.8,0,0,0,0-.77c-.11-.22-1-2.38-1.35-3.26s-.72-.74-1-.76h-.84a1.61,1.61,0,0,0-1.17.55,4.91,4.91,0,0,0-1.54,3.66A8.61,8.61,0,0,0,48.72,36c.22.29,3.1,4.73,7.51,6.63,1,.45,1.86.72,2.5.93a6.09,6.09,0,0,0,2.76.17,4.52,4.52,0,0,0,3-2.08,3.66,3.66,0,0,0,.26-2.09c-.11-.2-.4-.3-.84-.53Zm4.43-16.1A17.58,17.58,0,0,0,40.64,44.1l-2.5,9.11,9.32-2.45a17.58,17.58,0,0,0,8.4,2.15h0a17.59,17.59,0,0,0,12.43-30ZM55.86,49.94a14.63,14.63,0,0,1-7.44-2l-.53-.32L42.36,49l1.48-5.39-.35-.55a14.61,14.61,0,1,1,12.37,6.85ZM36.12,91.55H40v4.94h4.25V91.55h3.89v14.16H44.24V100H40v5.74H36.12V91.55Zm22.31,11.82H54l-.63,2.34h-4l4.72-14.16h4.25l4.7,14.16H59.06l-.63-2.34Zm-.82-3.06-1.37-5.09-1.37,5.09Zm6.79,5.4V91.55h6.47a8.46,8.46,0,0,1,2.75.35,3,3,0,0,1,1.53,1.29,4.25,4.25,0,0,1,.58,2.3,4.31,4.31,0,0,1-.45,2,3.72,3.72,0,0,1-1.22,1.39,4.6,4.6,0,0,1-1.36.56,3.61,3.61,0,0,1,1,.52,4.61,4.61,0,0,1,.62.75,5,5,0,0,1,.54.88l1.89,4.09H72.37l-2.08-4.32a3.11,3.11,0,0,0-.7-1.09,1.5,1.5,0,0,0-1-.33H68.3v5.74Zm3.9-8.41h1.64a6.08,6.08,0,0,0,1-.19,1,1,0,0,0,.62-.45,1.37,1.37,0,0,0,.25-.82,1.4,1.4,0,0,0-.39-1.06A2.15,2.15,0,0,0,70,94.42H68.3V97.3ZM78,91.55H88.37v3H81.89v2.26h6v2.88h-6v2.79h6.68v3.21H78V91.55Z"/><polygon class="cls-3" points="111.58 74.37 0 74.37 0 70.94 111.58 70.94 111.58 74.37 111.58 74.37"/></svg>