<svg width="200" height="120" viewBox="0 0 200 120" fill="none" xmlns="http://www.w3.org/2000/svg">
<rect width="200" height="120" rx="16" fill="white" fill-opacity="0.4"/>
<g clip-path="url(#clip0_85_1138)">
<path d="M62.8759 66.9562L62.8563 66.8937L75.3043 55.4979V50.0071H55.3335V55.4979H67.2621L67.2817 55.5505L54.9554 66.9562V72.4471H75.5048V66.9562H62.8759Z" fill="#201515"/>
<path d="M87.7629 49.4841C85.4593 49.4841 83.5819 49.8316 82.1307 50.5264C80.7791 51.132 79.6404 52.1297 78.8625 53.3902C78.1186 54.6589 77.6512 56.0707 77.4916 57.5329L83.5511 58.3845C83.7704 57.0934 84.2088 56.1783 84.8663 55.6391C85.6139 55.0751 86.5351 54.7902 87.4703 54.8336C88.7 54.8336 89.5921 55.1624 90.1468 55.8199C90.6959 56.4775 90.9753 57.3883 90.9753 58.5883V59.1867H85.1491C82.1833 59.1867 80.0528 59.8443 78.7575 61.1595C77.462 62.4746 76.8154 64.2106 76.8177 66.3675C76.8177 68.577 77.4642 70.221 78.7575 71.2993C80.0506 72.3778 81.6771 72.9137 83.6368 72.907C86.0675 72.907 87.9373 72.0709 89.2458 70.3985C90.0186 69.3706 90.5704 68.1942 90.8667 66.9429H91.087L91.9223 72.4335H97.4131V58.5292C97.4131 55.6555 96.6557 53.4296 95.1412 51.8514C93.6264 50.2733 91.1671 49.4841 87.7629 49.4841ZM89.6831 66.624C88.8118 67.3506 87.671 67.7122 86.2506 67.7122C85.0799 67.7122 84.2668 67.5073 83.811 67.0974C83.5889 66.9035 83.412 66.663 83.2932 66.3931C83.1745 66.1232 83.1166 65.8304 83.1238 65.5357C83.1107 65.2577 83.1546 64.9799 83.2524 64.7193C83.3501 64.4588 83.4999 64.2208 83.6925 64.0199C83.9008 63.8245 84.1467 63.6734 84.4152 63.5756C84.6837 63.4779 84.969 63.4355 85.2544 63.4511H90.9851V63.8292C90.9969 64.3637 90.8854 64.8937 90.6598 65.3782C90.4338 65.8628 90.0998 66.289 89.6831 66.624Z" fill="#201515"/>
<path d="M130.612 50.0071H124.125V72.4502H130.612V50.0071Z" fill="#201515"/>
<path d="M168.911 50.0071C167.078 50.0071 165.634 50.6537 164.577 51.9469C163.819 52.8763 163.242 54.2496 162.848 56.0667H162.657L161.809 50.0071H156.269V72.4471H162.756V60.9393C162.756 59.4883 163.095 58.3759 163.775 57.6021C164.454 56.8284 165.708 56.4415 167.536 56.4415H169.999V50.0071H168.911Z" fill="#201515"/>
<path d="M149.837 50.7406C148.323 49.8397 146.413 49.3904 144.107 49.3926C140.477 49.3926 137.636 50.4261 135.585 52.4931C133.533 54.5601 132.507 57.4096 132.507 61.0416C132.455 63.2375 132.934 65.4134 133.904 67.384C134.793 69.14 136.176 70.5974 137.883 71.576C139.601 72.5691 141.645 73.0667 144.015 73.0686C146.064 73.0686 147.776 72.7531 149.15 72.122C150.443 71.555 151.568 70.6662 152.419 69.5409C153.229 68.436 153.831 67.1925 154.194 65.8715L148.605 64.3065C148.369 65.1655 147.916 65.9492 147.289 66.5817C146.658 67.213 145.601 67.5286 144.117 67.5286C142.352 67.5286 141.037 67.0234 140.171 66.0129C139.543 65.283 139.149 64.2407 138.974 62.8894H154.28C154.342 62.2581 154.375 61.7288 154.375 61.3014V59.904C154.412 58.0268 154.024 56.1655 153.241 54.4592C152.507 52.9049 151.321 51.6087 149.837 50.7406ZM143.919 54.742C146.55 54.742 148.041 56.0363 148.394 58.625H139.089C139.237 57.7613 139.595 56.9471 140.132 56.2544C140.984 55.2439 142.247 54.7398 143.919 54.742Z" fill="#201515"/>
<path d="M127.438 40.9621C126.95 40.9455 126.464 41.0271 126.008 41.2022C125.552 41.3773 125.136 41.6423 124.785 41.9813C124.438 42.3236 124.167 42.7342 123.987 43.1869C123.808 43.6397 123.724 44.1249 123.743 44.6116C123.725 45.1014 123.809 45.5896 123.988 46.0457C124.168 46.5019 124.44 46.9161 124.786 47.2625C125.133 47.609 125.547 47.8802 126.004 48.0594C126.46 48.2386 126.948 48.3218 127.438 48.3039C127.925 48.3223 128.41 48.2391 128.863 48.0596C129.316 47.8802 129.726 47.6084 130.068 47.2616C130.408 46.9112 130.673 46.4958 130.847 46.0404C131.022 45.585 131.102 45.099 131.084 44.6116C131.107 44.1271 131.028 43.6432 130.853 43.1909C130.678 42.7386 130.41 42.3277 130.068 41.9846C129.725 41.6415 129.314 41.3736 128.862 41.1981C128.41 41.0226 127.926 40.9434 127.441 40.9654L127.438 40.9621Z" fill="#201515"/>
<path d="M114.039 49.3926C111.83 49.3926 110.055 50.0863 108.713 51.4738C107.72 52.5018 106.991 54.0362 106.527 56.0769H106.319L105.471 50.0173H99.9308V78.8982H106.418V67.0026H106.655C106.853 67.7957 107.13 68.5668 107.483 69.304C108.032 70.5049 108.932 71.5115 110.064 72.1908C111.238 72.8315 112.561 73.1504 113.898 73.1148C116.614 73.1148 118.682 72.0573 120.102 69.9419C121.522 67.8267 122.233 64.8753 122.233 61.0876C122.233 57.4293 121.546 54.5655 120.171 52.4964C118.797 50.4272 116.753 49.3926 114.039 49.3926ZM114.697 65.6545C113.941 66.7505 112.757 67.2985 111.146 67.2985C110.482 67.3291 109.82 67.2011 109.215 66.9249C108.61 66.6488 108.079 66.2324 107.668 65.7104C106.828 64.6561 106.409 63.2127 106.411 61.3802V60.9528C106.411 59.0919 106.83 57.6671 107.668 56.6785C108.505 55.69 109.664 55.2012 111.146 55.2122C112.786 55.2122 113.977 55.7327 114.72 56.7739C115.463 57.8151 115.835 59.2672 115.835 61.1303C115.839 63.0571 115.462 64.5651 114.703 65.6545H114.697Z" fill="#201515"/>
<path d="M52.4432 66.9561H30V72.4535H52.4432V66.9561Z" fill="#FF4F00"/>
</g>
<rect x="0.5" y="0.5" width="199" height="119" rx="15.5" stroke="#B670FF" stroke-opacity="0.2"/>
<defs>
<clipPath id="clip0_85_1138">
<rect width="140" height="38.08" fill="white" transform="translate(30 40.96)"/>
</clipPath>
</defs>
</svg>
