<svg width="200" height="120" viewBox="0 0 200 120" fill="none" xmlns="http://www.w3.org/2000/svg">
<rect width="200" height="120" rx="16" fill="white" fill-opacity="0.4"/>
<g clip-path="url(#clip0_85_1121)">
<path d="M92.5565 77.7512C91.4766 77.7512 90.3967 77.5197 89.3939 77.0566L67.179 67.1776C63.168 65.4025 61.3939 60.7717 63.168 56.7584L73.0413 34.6079C74.8154 30.6717 79.4435 28.8194 83.4545 30.5946L105.669 40.4735C109.603 42.2487 111.455 46.8794 109.68 50.8928L99.73 73.1204C98.4187 76.0533 95.5647 77.7512 92.5565 77.7512ZM91.168 72.8889C92.865 73.6607 94.7934 72.8889 95.5647 71.191L105.438 48.9633C106.209 47.2653 105.438 45.3358 103.741 44.564L81.6033 34.7622C79.9063 33.9905 77.9779 34.7622 77.2066 36.4602L67.3333 58.6107C66.562 60.3087 67.3333 62.2381 69.0303 63.0099L91.168 72.8889Z" fill="#089949"/>
<path d="M162.132 77.7512H137.835C133.515 77.7512 129.967 74.201 129.967 69.8789V45.5674C129.967 41.2453 133.515 37.6951 137.835 37.6951H162.132C166.452 37.6951 170 41.2453 170 45.5674V69.8789C170 74.201 166.452 77.7512 162.132 77.7512ZM137.835 42.2487C135.983 42.2487 134.518 43.7151 134.518 45.5674V69.8789C134.518 71.7312 135.983 73.1976 137.835 73.1976H162.132C163.983 73.1976 165.449 71.7312 165.449 69.8789V45.5674C165.449 43.7151 163.983 42.2487 162.132 42.2487H137.835Z" fill="#F9B21D"/>
<path d="M71.1129 50.0438L67.8733 57.3758C67.7961 57.453 67.7961 57.5302 67.719 57.6073L69.0303 65.4797C69.3388 67.332 68.1047 69.0299 66.2534 69.2614L42.2645 73.1204C41.416 73.2748 40.4904 73.0432 39.7961 72.503C39.1019 71.9627 38.6391 71.1909 38.4848 70.342L34.6281 46.3391C34.4738 45.4902 34.7052 44.564 35.2452 43.8694C35.7851 43.1748 36.5565 42.7117 37.405 42.5573L61.3939 38.6984C61.5482 38.6984 61.7796 38.6212 61.9339 38.6212C63.5537 38.6212 64.9421 39.7789 65.2507 41.3997L66.562 49.3491L69.9559 41.7856L69.8016 40.705C69.1074 36.383 65.0964 33.4502 60.7769 34.1448L36.7879 38.0038C34.7052 38.3125 32.854 39.4702 31.697 41.1681C30.4628 42.8661 30 44.9499 30.3085 47.0338L34.1653 71.0366C34.4738 73.1204 35.6308 74.9727 37.3278 76.2076C38.6391 77.2109 40.2589 77.674 41.9559 77.674C42.3416 77.674 42.8044 77.674 43.2672 77.5968L67.2562 73.7379C71.5757 73.0432 74.5069 69.0299 73.8127 64.7079L71.1129 50.0438Z" fill="#E42527"/>
<path d="M99.8843 61.4663L103.433 53.594L102.43 46.2619C102.275 45.4129 102.507 44.4868 103.047 43.7922C103.587 43.0975 104.358 42.6345 105.284 42.4801L129.35 39.2386C129.504 39.2386 129.658 39.2386 129.813 39.2386C130.507 39.2386 131.201 39.4701 131.818 39.9332C131.895 40.0104 132.05 40.0875 132.127 40.1647C133.207 39.007 134.595 38.2352 136.138 37.9265C135.675 37.3091 135.135 36.7688 134.518 36.3057C132.821 34.9937 130.738 34.4534 128.656 34.7622L104.512 38.0037C102.43 38.3124 100.579 39.3929 99.3444 41.0137C98.0331 42.7116 97.4931 44.7955 97.8017 46.8793L99.8843 61.4663Z" fill="#226DB4"/>
<path d="M140.92 65.5567L137.758 42.2485C135.983 42.3257 134.518 43.7921 134.518 45.5673V52.4362L136.369 66.1742C136.523 67.0231 136.292 67.9493 135.752 68.6439C135.212 69.3385 134.441 69.8016 133.515 69.956L109.449 73.1975C108.601 73.3519 107.675 73.1203 106.981 72.5801C106.287 72.0398 105.824 71.268 105.669 70.3419L104.59 62.1608L101.118 70.0331L101.273 70.9593C101.581 73.0431 102.661 74.8955 104.281 76.1303C105.669 77.2108 107.289 77.7511 109.063 77.7511C109.449 77.7511 109.758 77.7511 110.143 77.6739L134.209 74.4324C136.292 74.1237 138.143 73.0431 139.377 71.4224C140.612 69.7244 141.152 67.6406 140.92 65.5567Z" fill="#226DB4"/>
<path d="M72.9642 89.3283L76.4353 84.2344H73.5813C73.427 84.2344 73.2727 84.0801 73.2727 83.9257V83.2311C73.2727 83.0767 73.427 82.9224 73.5813 82.9224H78.2094C78.3636 82.9224 78.5179 83.0767 78.5179 83.2311V83.4626C78.5179 83.5398 78.5179 83.5398 78.4408 83.617L75.0468 88.7108H78.0551C78.2094 88.7108 78.3636 88.8652 78.3636 89.0195V89.7142C78.3636 89.8685 78.2094 90.0229 78.0551 90.0229H73.1956C73.0413 90.0229 72.8871 89.8685 72.8871 89.7142V89.4826C72.8871 89.4054 72.9642 89.3283 72.9642 89.3283Z" fill="black"/>
<path d="M87.4656 86.4726C87.4656 84.3888 89.0083 82.9224 91.0909 82.9224C93.2507 82.9224 94.7163 84.3888 94.7163 86.5498C94.7163 88.7108 93.2507 90.1772 91.0909 90.1772C88.854 90.1001 87.4656 88.6336 87.4656 86.4726ZM93.0193 86.4726C93.0193 85.2378 92.4022 84.1572 91.0138 84.1572C89.6254 84.1572 89.0854 85.3149 89.0854 86.5498C89.0854 87.7847 89.7025 88.8652 91.0909 88.8652C92.4793 88.8652 93.0193 87.6303 93.0193 86.4726Z" fill="black"/>
<path d="M104.512 82.9995H105.515C105.669 82.9995 105.824 83.1539 105.824 83.3082V85.8552H108.755V83.3082C108.755 83.1539 108.909 82.9995 109.063 82.9995H110.066C110.22 82.9995 110.375 83.1539 110.375 83.3082V89.7913C110.375 89.9457 110.22 90.1 110.066 90.1H109.063C108.909 90.1 108.755 89.9457 108.755 89.7913V87.1672H105.824V89.7913C105.824 89.9457 105.669 90.1 105.515 90.1H104.512C104.358 90.1 104.204 89.9457 104.204 89.7913V83.3082C104.204 83.0767 104.358 82.9995 104.512 82.9995Z" fill="black"/>
<path d="M119.862 86.4726C119.862 84.3888 121.405 82.9224 123.488 82.9224C125.647 82.9224 127.113 84.3888 127.113 86.5498C127.113 88.7108 125.647 90.1772 123.488 90.1772C121.328 90.1001 119.862 88.6336 119.862 86.4726ZM125.416 86.4726C125.416 85.2378 124.799 84.1572 123.41 84.1572C122.022 84.1572 121.482 85.3149 121.482 86.5498C121.482 87.7847 122.099 88.8652 123.488 88.8652C124.876 88.8652 125.416 87.6303 125.416 86.4726Z" fill="black"/>
</g>
<rect x="0.5" y="0.5" width="199" height="119" rx="15.5" stroke="#B670FF" stroke-opacity="0.2"/>
<defs>
<clipPath id="clip0_85_1121">
<rect width="140" height="60.2" fill="white" transform="translate(30 29.8999)"/>
</clipPath>
</defs>
</svg>
